.
..............................Site Info...........................

 -   http://www.scenetime.com  *_*   

Good news ! SceneTime will open sign up on Easter day for one day . Its a good chance to get on on Easter day .

Scenetime .Always on time . friendly online private torrent community ..

     We care to share . Join us on  http://www.scenetime.com 

    Be the first to get new release at  http://www.scenetime.com

        Seed back for speed


...................................NFO:.................................................Wrath Of The Titans 2012 TS READNFO XviD - ILLUMINATI
 
http://www.imdb.com/title/tt1646987/

Video
ID                               : 0
Format                           : MPEG-4 Visual
Format profile                   : Advanced Simple@L5
Format settings, BVOP            : 2
Format settings, QPel            : No
Format settings, GMC             : No warppoints
Format settings, Matrix          : Default (H.263)
Muxing mode                      : Packed bitstream
Codec ID                         : XVID
Codec ID/Hint                    : XviD
Duration                         : 1h 30mn
Bit rate                         : 2 063 Kbps
Width                            : 720 pixels
Height                           : 320 pixels
Display aspect ratio             : 2.25:1
Frame rate                       : 25.000 fps
Color space                      : YUV
Chroma subsampling               : 4:2:0
Bit depth                        : 8 bits
Scan type                        : Progressive
Compression mode                 : Lossy
Bits/(Pixel*Frame)               : 0.358
Stream size                      : 1.30 GiB (94%)
Writing library                  : XviD 64

Audio
ID                               : 1
Format                           : MPEG Audio
Format version                   : Version 1
Format profile                   : Layer 3
Mode                             : Joint stereo
Mode extension                   : MS Stereo
Codec ID                         : 55
Codec ID/Hint                    : MP3
Duration                         : 1h 30mn
Bit rate mode                    : Constant
Bit rate                         : 128 Kbps
Channel(s)                       : 2 channels
Sampling rate                    : 44.1 KHz
Compression mode                 : Lossy
Stream size                      : 82.8 MiB (6%)
Alignment                        : Split accross interleaves
Interleave, duration             : 40 ms (1.00 video frame)


Source
Video - Russian / ??? Thanks
Audio - Littlebird

READNFO
3 minutes of russian cam used to fill gaps, main film is 720p source
Main video has hardcoded Arabic Subs but video is very nice
Cropped bottom line of subs, left top line but doesnt show much


Screens
[IMG]http://i.imgur.com/OlzHH.png[/IMG]
[IMG]http://i.imgur.com/e8c6T.png[/IMG]
[IMG]http://i.imgur.com/1X0xW.png[/IMG]
[IMG]http://i.imgur.com/W4PaR.png[/IMG]
[IMG]http://i.imgur.com/LFhQQ.png[/IMG]
[IMG]http://i.imgur.com/OuDDY.png[/IMG]
[IMG]http://i.imgur.com/CcT58.png[/IMG]
[IMG]http://i.imgur.com/l0xsB.png[/IMG]
[IMG]http://i.imgur.com/pAanu.png[/IMG]